# xmcd
#
# Track frame offsets: 
#        150
#        3203
#        19784
#        33883
#        50519
#        69524
#        86266
#        102105
#        117720
#        131349
#        147129
#        163216
#        181817
#        195336
#        212660
#        233062
#        247968
#        263060
#        275010
#        292304
#        306187
#
# Disc length: 4301 seconds
#
# Revision: 0
# Processed by: cddbd v1.5.2PL0 Copyright (c) Steve Scherf et al.
# Submitted via: ExactAudioCopy v0.99pb3
#
DISCID=2310cb15
DTITLE=Cesar e Matheus - Perolas Sertanejas Vol 04
DYEAR=2002
DGENRE=Ballad
TTITLE0=Abertura
TTITLE1=Agenda Rabiscada
TTITLE2=Meu Primeiro Amor
TTITLE3=Como Eu Chorei
TTITLE4=Se Nao Tivesse Ido
TTITLE5=Culpados
TTITLE6=Cacador de Coracoes
TTITLE7=Adeus Solidao
TTITLE8=Solidao
TTITLE9=Viva a Vida Ainda Ontem Chorei de Saudades
TTITLE10=Decida
TTITLE11=Ainda Ontem Chorei de Saudades
TTITLE12=Barco de Papel
TTITLE13=Meu Pranto
TTITLE14=Filha15 Anos
TTITLE15=Uma Noite de Amor
TTITLE16=Filho Prodigio
TTITLE17=Multidao
TTITLE18=Desencontros
TTITLE19=SOS Coracao
TTITLE20=Saudade Cruel
EXTD=
EXTT0=
EXTT1=
EXTT2=
EXTT3=
EXTT4=
EXTT5=
EXTT6=
EXTT7=
EXTT8=
EXTT9=
EXTT10=
EXTT11=
EXTT12=
EXTT13=
EXTT14=
EXTT15=
EXTT16=
EXTT17=
EXTT18=
EXTT19=
EXTT20=
PLAYORDER=
